<svg width="512" height="512" viewBox="0 0 512 512" fill="none" xmlns="http://www.w3.org/2000/svg">
  <defs>
    <!-- Background Gradient: Deep slate / obsidian cyber glow -->
    <radialGradient id="bgGlow" cx="50%" cy="30%" r="70%" fx="50%" fy="20%">
      <stop offset="0%" stop-color="#1E293B" />
      <stop offset="60%" stop-color="#0B1120" />
      <stop offset="100%" stop-color="#050811" />
    </radialGradient>

    <!-- Vibrant Brand Orange Gradients -->
    <linearGradient id="orangeRoofGrad" x1="50" y1="10" x2="160" y2="60" gradientUnits="userSpaceOnUse">
      <stop offset="0%" stop-color="#FFA033" />
      <stop offset="50%" stop-color="#FF6B00" />
      <stop offset="100%" stop-color="#E05300" />
    </linearGradient>

    <linearGradient id="orangeBCurve" x1="100" y1="40" x2="190" y2="150" gradientUnits="userSpaceOnUse">
      <stop offset="0%" stop-color="#FF851B" />
      <stop offset="50%" stop-color="#FF6B00" />
      <stop offset="100%" stop-color="#D94800" />
    </linearGradient>

    <linearGradient id="whitePillarGrad" x1="50" y1="40" x2="120" y2="180" gradientUnits="userSpaceOnUse">
      <stop offset="0%" stop-color="#FFFFFF" />
      <stop offset="75%" stop-color="#F1F5F9" />
      <stop offset="100%" stop-color="#CBD5E1" />
    </linearGradient>

    <linearGradient id="whitePillar3D" x1="50" y1="150" x2="140" y2="180" gradientUnits="userSpaceOnUse">
      <stop offset="0%" stop-color="#94A3B8" />
      <stop offset="100%" stop-color="#64748B" />
    </linearGradient>

    <!-- Glow & 3D Depth Filters -->
    <filter id="subtleGlow" x="-20%" y="-20%" width="140%" height="140%">
      <feDropShadow dx="0" dy="6" stdDeviation="12" flood-color="#FF6B00" flood-opacity="0.35" />
      <feDropShadow dx="0" dy="2" stdDeviation="3" flood-color="#000000" flood-opacity="0.5" />
    </filter>
  </defs>

  <!-- Premium Squircle Container for Google Search & App Icons -->
  <rect width="512" height="512" rx="112" fill="url(#bgGlow)" />
  <rect x="4" y="4" width="504" height="504" rx="108" stroke="#FF6B00" stroke-width="6" stroke-opacity="0.35" />

  <!-- Buildify 3D House / B Emblem Centered -->
  <g transform="translate(256, 258) scale(2.26) translate(-107.5, -99)" filter="url(#subtleGlow)">
    <!-- 1. Orange Roof Top with 3D Bevel -->
    <path
      d="M35 55L95 18C98 16 102 16 105 18L165 42C167 43 167 46 166 49L160 62C159 64 157 65 155 64L102 40L40 67C38 68 36 67 35 65L32 58C31 56 32 54 35 55Z"
      fill="url(#orangeRoofGrad)"
    />

    <!-- 2. 4 Orange Windows (2x2 Grid) -->
    <rect x="90" y="58" width="11" height="11" rx="2" fill="#FF7A00" />
    <rect x="105" y="58" width="11" height="11" rx="2" fill="#FF7A00" />
    <rect x="90" y="73" width="11" height="11" rx="2" fill="#FF7A00" />
    <rect x="105" y="73" width="11" height="11" rx="2" fill="#FF7A00" />

    <!-- 3. White 3D Pillar & Lower Floor Base (Isometric L-shape) -->
    <g>
      <path
        d="M86 52L54 160L148 160L165 138L92 138L108 52H86Z"
        fill="url(#whitePillarGrad)"
      />
      <path
        d="M54 160L46 172L138 172L148 160H54Z"
        fill="url(#whitePillar3D)"
      />
    </g>

    <!-- 4. Orange 'B' Curved Right Loops -->
    <path
      d="M102 46H132C155 46 174 58 174 77C174 88 166 98 153 103C172 108 184 122 184 140C184 163 162 180 134 180H90L102 156H132C148 156 160 148 160 138C160 128 148 120 132 120H110L114 104H130C144 104 152 97 152 88C152 80 144 72 130 72H106L102 46Z"
      fill="url(#orangeBCurve)"
    />
  </g>
</svg>